# xmcd
#
# Track frame offsets: 
#        150
#        15743
#        33709
#        49366
#        69497
#        85219
#        109183
#        129822
#        142571
#        152786
#        166482
#        194899
#        227915
#        264617
#
# Disc length: 3832 seconds
#
# Revision: 2
# Processed by: cddbd v1.5.2PL0 Copyright (c) Steve Scherf et al.
# Submitted via: ExactAudioCopy v0.99pb5
#
DISCID=c30ef60e
DTITLE=Miles Davis - Miles Ahead [Expanded Edition]
DYEAR=1957
DGENRE=Jazz
TTITLE0=Springsville
TTITLE1=The maids of Cadiz
TTITLE2=The Duke
TTITLE3=My Ship
TTITLE4=Miles ahead
TTITLE5=Blues for Pablo
TTITLE6=New rhumba
TTITLE7=The meaning of the Blues
TTITLE8=Lament
TTITLE9=I don't wanna be kissed
TTITLE10=Nature boy [bonus track]
TTITLE11=Alone together [bonus track]
TTITLE12=There's no you [bonus track]
TTITLE13=Easy living [bonus track]
EXTD=YEAR: 1957
EXTT0=
EXTT1=
EXTT2=
EXTT3=
EXTT4=
EXTT5=
EXTT6=
EXTT7=
EXTT8=
EXTT9=
EXTT10=
EXTT11=
EXTT12=
EXTT13=
PLAYORDER=
